<svg width="1024" height="1024" viewBox="0 0 1024 1024" fill="none" xmlns="http://www.w3.org/2000/svg">
<path fill-rule="evenodd" clip-rule="evenodd" d="M75.5671 760.506C14.8452 811.888 0 852.071 0 915.796C0 966.172 42.1208 1024 104.855 1024H589.11C751.646 1024 1024.04 841.877 1024 519.55C1023.96 261.679 811.295 2.07078 520.071 0.0136666C187.263 -2.31773 3.08529 294.135 3.08529 506.43C3.08529 587.434 29.6903 690.884 75.5671 760.506ZM102.709 512.327C102.709 282.753 285.724 96.6524 511.441 96.6524C737.158 96.6524 920.174 282.753 920.174 512.327C920.174 737.604 743.999 921.007 524.095 927.818C519.892 927.956 515.689 928.047 511.441 928.047H138.659C97.9241 928.047 89.1153 882.653 111.696 854.951C146.752 811.98 192.405 784.14 192.405 784.14C192.405 784.14 166.65 735.775 162.983 729.695C124.753 666.473 102.709 592.006 102.709 512.327ZM483.423 451.388C551.031 438.633 595.835 372.531 583.493 303.778C571.108 234.979 506.272 189.585 438.664 202.339C371.057 215.094 326.298 281.196 338.639 349.995C350.98 418.748 415.815 464.142 483.423 451.388ZM469.696 569.1C425.116 515.615 346.732 508.987 294.64 554.335C242.548 599.637 236.512 679.773 281.136 733.258C325.716 786.697 404.1 793.326 456.192 747.978C508.284 702.675 514.321 622.539 469.696 569.1ZM576.25 522.381C553.267 588.62 586.847 661.35 651.325 684.802C715.758 708.207 786.63 673.51 809.613 607.271C832.596 541.032 799.016 468.347 734.583 444.896C670.15 421.445 599.278 456.142 576.25 522.381Z" fill="black"/>
</svg>
